#!OML:ASF F:\VICON\USERDATA\INSTALL\Justin_Nancy\Justin_Nancy.ASF
:FULLY-SPECIFIED
:DEGREES
342
root -6.25028 17.4304 11.9921 -4.07973 73.1959 -12.4312
lowerback 6.72749 2.3451 3.93472
upperback -0.509631 3.58824 2.52082
thorax -4.22459 1.73286 0.040408
lowerneck -16.8159 -3.53319 -8.23688
upperneck 21.8356 -3.42215 3.8185
head 9.94237 -1.76454 2.26211
rclavicle -2.3556e-014 2.62396e-014
rhumerus -28.077 -8.23704 -75.5539
rradius 29.8976
rwrist 6.15116
rhand -15.5996 10.7924
rfingers 7.12502
rthumb 10.5864 -18.9209
lclavicle -2.3556e-014 2.62396e-014
lhumerus -34.427 19.3301 75.291
lradius 24.1253
lwrist -10.0685
lhand -18.3488 24.1355
lfingers 7.12502
lthumb 7.93369 53.9667
rfemur 8.76638 -7.91486 25.6887
rtibia 11.0848
rfoot -7.45758 -20.9638
rtoes -18.8526
lfemur -34.5873 -3.83929 -19.7262
ltibia 18.6647
lfoot -13.0748 21.7373
ltoes -3.78926
343
root -6.15199 17.4071 12.0607 -8.88232 72.9096 -17.7046
lowerback 6.63013 2.55286 5.34865
upperback -0.621113 4.00632 2.86718
thorax -4.20886 1.91595 -0.42243
lowerneck -16.8769 -3.56365 -8.35239
upperneck 21.7375 -3.44698 3.89543
head 9.92441 -1.776 2.30344
rclavicle -9.74045e-015 -2.46493e-014
rhumerus -27.9299 -8.41415 -75.589
rradius 29.9365
rwrist 5.8886
rhand -16.0426 10.6525
rfingers 7.12502
rthumb 10.159 -19.0822
lclavicle -9.74045e-015 -2.46493e-014
lhumerus -34.8929 21.2622 73.9237
lradius 23.6816
lwrist -12.0082
lhand -17.9597 24.1763
lfingers 7.12502
lthumb 8.30926 53.9929
rfemur 9.28784 -7.30109 27.6852
rtibia 10.2412
rfoot -7.30973 -21.5791
rtoes -18.5318
lfemur -34.9963 -1.47213 -18.9042
ltibia 18.8489
lfoot -12.6722 19.3152
ltoes -4.74615
344
root -6.0559 17.3865 12.1248 -12.8362 73.0316 -21.6009
lowerback 6.99834 2.57779 6.19837
upperback -0.649783 4.16626 3.14516
thorax -4.40466 1.97678 -0.639134
lowerneck -16.8522 -3.49782 -8.15721
upperneck 21.6693 -3.37419 3.74951
head 9.8837 -1.74239 2.22914
rclavicle -1.46107e-014 -1.35174e-014
rhumerus -27.857 -8.33341 -75.6104
rradius 30.1195
rwrist 5.42266
rhand -15.6599 10.4832
rfingers 7.12502
rthumb 10.5282 -19.2331
lclavicle -1.46107e-014 -1.35174e-014
lhumerus -35.3786 22.0406 73.0948
lradius 23.4028
lwrist -12.2286
lhand -17.3965 24.2337
lfingers 7.12502
lthumb 8.85274 54.028
rfemur 10.71 -7.52549 29.1568
rtibia 8.65934
rfoot -5.29253 -22.2486
rtoes -23.2826
lfemur -35.1275 0.359103 -18.6498
ltibia 19.5869
lfoot -12.0776 16.5043
ltoes -4.70607
345
root -5.95579 17.3603 12.2139 -15.815 73.2695 -24.0934
lowerback 7.58159 2.63856 6.31279
upperback -0.541466 4.32101 3.36124
thorax -4.62208 2.05103 -0.522949
lowerneck -17.1336 -3.63331 -8.19736
upperneck 21.926 -3.54647 3.82222
head 10.042 -1.81564 2.23754
rclavicle -4.33351e-014 -1.27222e-014
rhumerus -27.7983 -8.97164 -75.59
rradius 30.183
rwrist 5.31387
rhand -15.5574 10.4616
rfingers 7.12502
rthumb 10.6271 -19.2497
lclavicle -4.33351e-014 -1.27222e-014
lhumerus -35.6059 22.1728 72.5252
lradius 22.9162
lwrist -11.6202
lhand -17.8787 24.2909
lfingers 7.12502
lthumb 8.38742 54.1043
rfemur 12.7938 -7.88926 30.0274
rtibia 6.60695
rfoot -3.93598 -22.2601
rtoes -24.8475
lfemur -34.9285 1.85008 -18.7206
ltibia 20.6988
lfoot -11.4005 13.708
ltoes -5.41382
346
root -5.84198 17.3377 12.3048 -17.7291 73.0281 -25.8627
lowerback 7.79157 2.94901 6.33175
upperback -0.583255 4.76896 3.48508
thorax -4.77147 2.26997 -0.46575
lowerneck -17.3379 -3.96319 -8.2011
upperneck 22.2145 -4.00539 3.88516
head 10.2171 -2.0187 2.19588
rclavicle 2.15681e-014 2.3059e-014
rhumerus -27.9958 -9.72787 -75.5691
rradius 30.3351
rwrist 5.26237
rhand -15.5206 10.5243
rfingers 7.12502
rthumb 10.6626 -19.1851
lclavicle 2.15681e-014 2.3059e-014
lhumerus -35.943 22.5816 71.6767
lradius 22.3585
lwrist -11.8402
lhand -18.7854 24.8165
lfingers 7.12502
lthumb 7.5123 54.6631
rfemur 13.1382 -7.67019 30.6982
rtibia 7.1828
rfoot -5.08095 -22.2355
rtoes -22.2023
lfemur -34.3828 1.96062 -17.9627
ltibia 20.9323
lfoot -11.1361 12.6271
ltoes -3.88732
347
root -5.71809 17.3352 12.331 -15.2599 72.9708 -23.5756
lowerback 7.51072 3.20089 5.84288
upperback -0.60033 5.00942 3.1856
thorax -4.63012 2.39721 -0.515161
lowerneck -17.5887 -4.00854 -8.1305
upperneck 22.1996 -4.0776 3.90894
head 10.2623 -2.04183 2.17913
rclavicle 8.00108e-014 6.99722e-014
rhumerus -27.8294 -10.2577 -75.7158
rradius 30.4891
rwrist 5.33343
rhand -15.4687 10.6718
rfingers 7.12502
rthumb 10.7127 -19.0351
lclavicle 8.00108e-014 6.99722e-014
lhumerus -36.2099 23.258 70.8323
lradius 21.9046
lwrist -11.9986
lhand -18.6433 25.1145
lfingers 7.12502
lthumb 7.64949 54.9562
rfemur 13.3105 -7.13829 29.926
rtibia 6.90625
rfoot -4.85766 -22.1572
rtoes -20.7153
lfemur -34.1668 0.909372 -18.1078
ltibia 21.3533
lfoot -11.6766 12.697
ltoes -0.581601
348
root -5.59294 17.3413 12.2795 -8.62487 73.7235 -16.947
lowerback 7.46463 3.19202 4.89456
upperback -0.653235 4.84857 2.38391
thorax -4.66917 2.32006 -0.804036
lowerneck -17.8239 -3.91351 -8.01721
upperneck 22.1496 -3.93321 3.80185
head 10.2736 -1.97732 2.13987
rclavicle 1.48095e-014 7.95139e-016
rhumerus -27.556 -10.4449 -75.8446
rradius 30.6213
rwrist 4.98979
rhand -15.6841 10.7293
rfingers 7.12502
rthumb 10.5049 -18.9882
lclavicle 1.48095e-014 7.95139e-016
lhumerus -36.7278 24.8754 69.6021
lradius 21.4661
lwrist -12.5275
lhand -18.4008 25.0943
lfingers 7.12502
lthumb 7.88349 54.9273
rfemur 11.9716 -7.08781 27.2479
rtibia 9.38157
rfoot -5.69834 -22.3345
rtoes -20.0872
lfemur -33.4743 1.45779 -21.0984
ltibia 20.6791
lfoot -10.8094 10.9497
ltoes -0.365658
349
root -5.47056 17.3283 12.3877 -14.9986 73.7367 -22.8964
lowerback 7.90204 3.20672 5.66711
upperback -0.521341 5.01414 2.99637
thorax -4.76428 2.39611 -0.637824
lowerneck -17.8359 -4.00292 -8.04831
upperneck 22.1418 -4.04337 3.78514
head 10.2811 -2.03217 2.12275
rclavicle 8.05078e-015 1.59028e-015
rhumerus -27.638 -10.6815 -75.9503
rradius 30.9346
rwrist 3.98502
rhand -15.5516 10.6633
rfingers 7.12502
rthumb 10.6327 -19.0477
lclavicle 8.05078e-015 1.59028e-015
lhumerus -37.6278 26.9433 68.0067
lradius 21.2516
lwrist -13.3807
lhand -18.6651 25.3789
lfingers 7.12502
lthumb 7.62838 55.2213
rfemur 11.7807 -7.38584 29.1095
rtibia 11.8089
rfoot -7.1421 -22.7288
rtoes -18.1012
lfemur -32.1158 2.9833 -20.0048
ltibia 19.812
lfoot -8.45265 8.94454
ltoes -4.03622
350
root -5.33229 17.3574 12.3512 -0.80534 74.0749 -9.13067
lowerback 7.18802 3.64339 2.76382
upperback -0.799821 5.19285 1.58733
thorax -4.75847 2.52444 -0.47426
lowerneck -17.8184 -4.10496 -8.2351
upperneck 22.1005 -4.15583 3.87756
head 10.2776 -2.08859 2.17004
rclavicle 3.93594e-014 1.59028e-014
rhumerus -27.7104 -11.4622 -76.0379
rradius 31.0623
rwrist 3.86509
rhand -15.3714 10.7863
rfingers 7.12502
rthumb 10.8065 -18.9157
lclavicle 3.93594e-014 1.59028e-014
lhumerus -38.4876 28.6694 66.4596
lradius 21.0585
lwrist -14.2741
lhand -18.8301 25.6111
lfingers 7.12502
lthumb 7.46913 55.4592
rfemur 10.1732 -8.41158 24.4449
rtibia 14.1932
rfoot -7.78883 -21.5177
rtoes -18.754
lfemur -31.9661 3.05319 -24.5612
ltibia 18.4039
lfoot -5.95757 8.8506
ltoes -4.16265
351
root -5.19712 17.3712 12.3784 2.26678 74.0698 -6.02481
lowerback 7.14343 3.74898 2.13547
upperback -0.848258 5.25251 1.18473
thorax -4.79934 2.56175 -0.54754
lowerneck -17.6423 -4.04885 -8.2389
upperneck 21.815 -4.08945 3.87297
head 10.137 -2.05993 2.17819
rclavicle -3.04141e-014 7.15625e-015
rhumerus -27.7451 -12.6249 -76.0021
rradius 31.1123
rwrist 5.40609
rhand -14.9589 11.3661
rfingers 7.12502
rthumb 11.2044 -18.3148
lclavicle -3.04141e-014 7.15625e-015
lhumerus -39.318 30.0392 65.0399
lradius 20.8046
lwrist -14.9949
lhand -19.0372 25.7508
lfingers 7.12502
lthumb 7.26928 55.6059
rfemur 10.515 -8.52731 23.4312
rtibia 14.4731
rfoot -7.08179 -21.4383
rtoes -19.4361
lfemur -31.8245 3.28354 -25.546
ltibia 18.4356
lfoot -4.70736 8.62011
ltoes -0.377541
352
root -5.06201 17.3902 12.3724 7.25406 74.006 -1.0493
lowerback 7.16752 3.79233 1.47141
upperback -0.966878 5.21329 0.471198
thorax -4.92839 2.54518 -0.918589
lowerneck -17.6166 -3.99587 -7.95585
upperneck 21.6842 -4.08906 3.82816
head 10.0762 -2.04168 2.1148
rclavicle -5.25785e-014 -1.74931e-014
rhumerus -27.802 -12.7709 -76.6479
rradius 31.4617
rwrist 4.35717
rhand -15.924 10.9857
rfingers 7.12502
rthumb 10.2735 -18.7434
lclavicle -5.25785e-014 -1.74931e-014
lhumerus -40.1476 31.2152 63.5469
lradius 20.5914
lwrist -15.5844
lhand -19.171 26.3645
lfingers 7.12502
lthumb 7.1401 56.2241
rfemur 10.2307 -8.43106 21.5814
rtibia 15.2266
rfoot -7.3054 -21.0449
rtoes -16.1396
lfemur -31.6243 3.8949 -27.3851
ltibia 18.2552
lfoot -4.17302 7.63156
ltoes 0.938416
353
root -4.92347 17.4046 12.4734 -2.86179 74.0366 -10.6094
lowerback 7.84575 3.79171 3.53752
upperback -0.709172 5.47002 1.29501
thorax -4.92773 2.63197 -1.27581
lowerneck -17.9787 -4.06083 -8.09648
upperneck 21.9529 -4.1367 3.92697
head 10.2499 -2.06154 2.16436
rclavicle 1.68967e-015 1.59028e-014
rhumerus -27.8024 -13.48 -76.8953
rradius 31.6629
rwrist 4.477
rhand -15.597 11.1671
rfingers 7.12502
rthumb 10.5889 -18.5462
lclavicle 1.68967e-015 1.59028e-014
lhumerus -40.9005 32.673 62.1672
lradius 20.2285
lwrist -16.2169
lhand -18.9493 26.3623
lfingers 7.12502
lthumb 7.35413 56.2145
rfemur 11.5865 -6.83285 24.8898
rtibia 14.9772
rfoot -7.24033 -22.6016
rtoes -12.6954
lfemur -30.8769 3.94733 -24.1017
ltibia 19.3116
lfoot -4.33645 7.37238
ltoes -0.0790135
354
root -4.78767 17.4121 12.5235 -6.14866 73.9525 -13.6507
lowerback 8.13702 3.82603 4.19073
upperback -0.55615 5.61195 1.63776
thorax -4.89972 2.69379 -1.31282
lowerneck -18.3083 -4.11242 -8.52691
upperneck 22.0497 -4.07034 3.98603
head 10.3557 -2.0587 2.26321
rclavicle -1.26924e-013 9.14409e-015
rhumerus -27.719 -13.9288 -77.0296
rradius 31.8756
rwrist 4.50336
rhand -15.1744 11.3023
rfingers 7.12502
rthumb 10.9965 -18.3897
lclavicle -1.26924e-013 9.14409e-015
lhumerus -41.4226 33.7684 61.2668
lradius 19.6942
lwrist -16.3072
lhand -18.2768 26.0744
lfingers 7.12502
lthumb 8.00315 55.9029
rfemur 12.3324 -7.03935 25.7917
rtibia 15.1432
rfoot -6.15359 -22.8223
rtoes -15.2057
lfemur -30.6181 3.6299 -22.9367
ltibia 20.3398
lfoot -4.18466 7.56943
ltoes 0.01445
355
root -4.64875 17.4146 12.5467 -5.28621 74.2956 -12.6636
lowerback 8.23072 3.91648 4.23173
upperback -0.582447 5.7228 1.33726
thorax -4.93923 2.74021 -1.66587
lowerneck -18.0012 -4.20648 -8.47126
upperneck 21.7346 -4.24275 3.98313
head 10.1947 -2.13493 2.22824
rclavicle 3.83654e-014 3.97569e-015
rhumerus -27.8947 -14.7453 -77.2908
rradius 32.078
rwrist 4.17424
rhand -15.2284 11.409
rfingers 7.12502
rthumb 10.9445 -18.2858
lclavicle 3.83654e-014 3.97569e-015
lhumerus -41.3765 33.2612 61.1503
lradius 19.3311
lwrist -15.1911
lhand -18.14 26.4332
lfingers 7.12502
lthumb 8.13524 56.2566
rfemur 12.8487 -8.30328 25.1247
rtibia 15.4223
rfoot 1.04392 -19.4255
rtoes -35.7658
lfemur -30.7278 4.06866 -23.5689
ltibia 21.4817
lfoot -3.84205 7.18364
ltoes 2.20945
